# xmcd
#
# Track frame offsets:
#	182
#	15262
#	32110
#	47785
#	66162
#	88550
#	104725
#	125135
#	142930
#	160420
#	172927
#	185325
#
# Disc length: 2705 seconds
#
# Revision: 0
# Processed by: cddbd v1.5.1PL2 Copyright (c) Steve Scherf et al.
# Submitted via: audiograbber 1.83.01
#
DISCID=9e0a8f0c
DTITLE=Jeanne Manson - Bravo à Jeanne Manson
DYEAR=1990
DGENRE=
TTITLE0=L'étoile d'amour
TTITLE1=Dis jamais good bye (No woman no cry)
TTITLE2=Baby baby
TTITLE3=Boxeur
TTITLE4=Love moi dans tes bras
TTITLE5=J'ai cru en moi
TTITLE6=Lucie et Daniel
TTITLE7=Un enfant est né
TTITLE8=You and me
TTITLE9=C'est toi que j'aime
TTITLE10=Words
TTITLE11=Je veux te dire que je t'aime
EXTD=
EXTT0=
EXTT1=
EXTT2=
EXTT3=
EXTT4=
EXTT5=
EXTT6=
EXTT7=
EXTT8=
EXTT9=
EXTT10=
EXTT11=
PLAYORDER=
